<?xml version="1.0" encoding="utf-8"?>
<!-- Generator: Adobe Illustrator 27.9.4, SVG Export Plug-In . SVG Version: 9.03 Build 54784)  -->
<svg version="1.1" id="IntiIcon" xmlns="http://www.w3.org/2000/svg" xmlns:xlink="http://www.w3.org/1999/xlink" x="0px" y="0px"
	 viewBox="0 0 267 264" style="enable-background:new 0 0 267 264;" xml:space="preserve">
<style type="text/css">
	.st0{fill:#F9C31B;}
</style>
<g transform="translate(0.000000,1694.000000) scale(0.100000,-0.100000)">
</g>
<g>
	<path class="st0" d="M49.6,66.3c-4.2-4.2-8.3-8.4-12.5-12.6c-3.7-4-1.6-9.4,4.3-7.9c21.7,9,12.6,16.9,25.6,4c2.7-1.9,5.3-4.2,8.1-6
		c1.3-0.7-0.6-2.9-1.1-3.9c-1.5-6.7-8.7-12.7-6.7-19.8c3.3-4,7.2,1.4,10,3.3c15.1,15.7,6.1,13.5,26.4,6.6c1.4-0.7,5.5-0.6,4.5-2.8
		c-1.5-5.6-1.7-11.5-2.2-17.2c-0.1-2.2-0.9-4.5,0.9-6.4c0.1,0,0.1,0,0.1-0.1c10.2-1.4,12.3,14.9,14.6,22.1c0.1,0.5,0.4,0.7,0.9,0.5
		c5.5-1,11.1-1.1,16.7-1c1.9,0.4,1.4-1.1,1.9-2.4c1.6-7.4,2.6-16.7,7.7-22.4c12.8-3.6,3.1,24.3,7.6,26.3c0,0,0,0,0,0
		c0.8,0.3,1.6,0.5,2.4,0.4c4.9,1.3,10,2.3,14.8,4.2c2.8,1.5,4.4-2.8,5.8-4.6c3.6-3.8,7.1-12,13.5-9.8c1,1.9,1.7,3.6,1.3,5.8
		c0,0,0,0,0,0c-0.5,1.3-1.1,2.6-1.6,4c0,0,0,0,0,0c-8.4,15.8-4.2,8.9,8.5,19.4c0.4,0.3,0.8,0.6,1.3,0.2c5.5-4.7,11.4-9.1,17.8-12.5
		c0.7-0.2,1.5-0.1,2-0.5c2.8-0.3,5.7-1.1,8.2,0.9c-1.4,9.1-10.9,15.3-15.8,22.9c-0.7,1.8,3.2,4.2,4.3,5.7c0,0.1,0.1,0.2,0.2,0.2
		c2.2,2,6.6,10.9,8.8,10.6c8.3-1.7,16-5.8,24.4-6.9c1.5,0.4,2.3,1.5,2.9,2.9c0,1.2,0.1,2.3-0.3,3.5c-5.2,5.9-12.9,8.6-19.4,13
		c-0.1,0-0.1,0-0.1,0.1c-0.2,0-0.4,0.1-0.4,0.4c0,0,0,0,0,0c-3.3-0.2,4.3,14.4,4.1,17.4c0.3,1.3,0.3,1.4,1.7,1.3
		c7.8-0.3,16-3.5,23.6-0.6c6.3,4.5-1.2,9.2-5.5,10.8c-2.8,1-5.7,2.2-8.4,3.7c-1.7,0.5-8,2.6-8.5,4c0.2,4.6,0,9.2,0,13.7
		c-0.7,2.3,2.1,2.1,3.5,2.8c6.1,2,31.7,11.5,15.1,16.9c-3,0.8-6.1,1.1-9.2,1.1c-11.5,0.9-12.6-5.2-14.4,4.7
		c-0.4,1.7-3.9,7.7-2.3,8.4c4.8,2.7,10,5,14.3,8.5c17.5,19.3-16.4,4.6-23.2,7.2c-9.5,14.6-7.5,7.2,2.8,21.6c0,0,0,0,0,0
		c4.7,7.5,13.8,22.2-3.2,13.3c-0.1-0.2-0.3-0.2-0.4-0.2c-5.8-3.5-12-6.4-16.9-11.3c-0.9-0.9-2,0.8-2.5,1.4c0,0,0,0,0,0
		c-11.7,10.3-11.5,4.1-6.6,19.6c0,0.1,0,0.1,0,0.2c1.9,4.1,3.5,18.8-4.5,13c-2.9-2.4-11.8-17.5-14.1-16.1c-4.4,2.2-9,3.8-13.7,5.2
		c-1.7,0.9,0,3.8-0.4,5.4c0.1,5.3,0.9,29.5-8.9,23.7c-3.8-7.6-5.1-16.3-7.3-24.5c-0.6-2.1-6.2,0.1-8.2-0.3c-3.2,1-9.7-1.2-11.7,1
		c-2.4,7.9-6.6,15.1-10.5,22.2l0,0.1c0,0,0-0.1,0-0.1c-14.3,13.7-5.9-20-6.3-25.5c-24.4-5.6-10.6-9.2-30.1,12.3c0,0,0,0,0,0
		c-13.4,13.8-7.9-7-5.8-14.4c0-2.1,4.1-10,2.8-10.4c-5.2-4.1-11.5-7.7-16.4-12.4c-0.5-0.4-0.8-0.4-1.2-0.1
		c-7.1,5.1-14,13.4-22.9,14.6c-8.6-3.9,5-15.4,7.5-20.3c7.3-7.7,5.9-5,0-13.2c0,0,0,0,0,0c-2.8-5.1-6-10.2-8.1-15.7
		c-0.5-1.1-1-0.9-1.8-0.7c-8.3,1.6-18.3,6.9-26.4,3.2c-2.1-4.1,0.7-6.1,3.4-8.6c25.6-13.5,20.2-1.5,16.5-30.5
		c-8.9-4.5-21.1-1-29.9-7c-7.8-8.8,23.8-9,28.5-9c2.3-1,1.4-11.1,2.8-14.3c0-2.7,3-7.5,1.2-9.5c-5.9-2.1-33.1-17.6-13.8-18.9
		c25.1,4.5,14.7,12.9,27-7.8C47.4,70.8,51.9,67.8,49.6,66.3z M201.3,57.9c-20.2-19.4-51-29.2-78.4-23.1c-2.5,0.2-5.1,0.7-7.4,1.6
		c-15,3.9-29.2,11.8-40.3,22.7l0,0c-4,3.1-7.2,7.2-10.3,11.2C50.1,88.6,42.6,113.4,45,136.7c0.3,5,1.1,10.6,2.4,15.3
		c1,6.7,3.7,13.3,6.7,19.3c0.8,2,1.9,4,3.3,5.8c2.2,4,5,8,8.2,11.1l0,0c2.3,3,5.2,6,8.2,8.3l0,0c21.8,19.3,53.8,27.8,82.5,22.7
		c2.2-0.1,4.5-0.5,6.6-1.2c25.6-5.6,48.2-24.1,59.4-47.6c18-33.6,11.5-78.1-14.4-105.8c0-0.3-0.1-0.4-0.4-0.4l0,0
		C205.8,61.7,203.6,59.7,201.3,57.9L201.3,57.9z"/>
	<path class="st0" d="M109,83.6c3.2-2,6.6-3.6,10-5.1c53.6-22.2,95.3,49,51.9,85.8c-18.6,14.4-47.4,17.2-66.7,2.6
		c-19.9-16.5-24.2-47.5-9.9-68.9c3.5-4.8,7.7-9.3,12.5-12.9c0.5-0.1,0.8-0.3,1.1-0.8C108.3,84.1,108.8,84.1,109,83.6z M166.1,104.6
		c1.2-1.5,8.9-4.5,7.7-6c-1.3-1.2-5.7-7.7-7.2-6.1c-1.8,3.2-5.7,13.4-9.9,7.4c-0.7-3.8,3.6-6.5,4.6-10c1.6-1.4,0.5-2-1.1-2.5
		c-1.9-0.9-4.4-2.7-6.3-2.5c-1.4,3.6-3.4,14.6-8.5,8.4c0.3-9.7,8.5-10.9-6.2-11.1c-2.8,1.3,2.8,10.5-2.8,11.4
		c-4.4,0.3-3.6-6.8-3.9-9.8c0.3-2.9-8.6,1.2-10.4,1.5c-2.2,1.2,2.3,5,2.7,6.8c0.5,2.2-0.1,4.8-3,4c-7.8-8.3-1.7-11.6-13.5-2.1
		c-0.3,0.2-0.3,0.5,0.1,0.7c1.8,1.4,3.8,2.6,5.4,4.3c2.8,2.6-0.1,6.5-3.2,4.3c-1.6-1.1-3.1-2.2-4.7-3.4c-0.5-1.2-1.9-1.9-2.5-0.3
		c-1,1.9-5.2,7-4.2,8.8c2.4,1.8,9.3,0.9,7.8,5.4c-2.1,3-6.7,0.9-9.4-0.2c-1-0.8-1.2,1.3-1.3,2c-0.4,1.3-2.8,10.4-0.5,9.9
		c3.2-0.9,12.1-0.6,7.9,4.5c-1.9,1.2-9.3-1-8.8,1.5c0.1,1.7,0.1,13,3.3,9.2c2.5-1.4,9.6-4.3,7.8,1.3c-1.7,2.6-4.8,3.6-7.5,4.7
		c-0.3,0.1-0.3,0.4-0.2,0.6c1.4,3.2,3.3,6.1,5.5,8.8c1,2.2,1.4-0.2,2.5-0.8c1.6-1.4,3.1-3.1,4.6-4.7c1.1-0.6,2.1-1.4,3.4-0.7
		c3.1,3.6-3.3,8-5.5,10.6c-0.3,0.3-0.3,0.5,0,0.7c2.7,2.1,5.6,4,8.7,5.3c1.9,0.8,1.9-7.2,3.6-8.3c1.5-1.4,4.3-0.5,4.2,1.6
		c-0.3,2.8-1,5.6-2.1,8.3c-0.1,0.2-0.4,0.7,0.2,0.8c2,0.3,10.6,3.1,11.3,1.1c0.4-3.5-1.1-7.6,1-10.7c1.1-1.3,3.7-0.4,4.1,1.5
		c0.5,3,0.4,6,0.4,9c0,0.4,0.2,0.6,0.6,0.6c1.8-0.5,11.9-1.1,10.5-3.7c-1.2-3.2-4.4-8-1.6-11.1c2-0.4,3.1,0.7,4,2.3
		c4.4,10.2,2.3,8.5,11.6,2.2c1.1-1.6-4.4-5.5-5-7.8c-2.2-3.2,1.9-5.8,4.2-3.5c1.8,1.9,3.4,4.1,5.1,6.2c1.5,0.7,4.3-4.7,5.3-6
		c-0.9-2.6-5.9-3.3-6.3-6.6c-0.3-2.3,2.5-3.9,4.3-2.4c1.6,0.5,4.3,4.5,5.5,2.4c1-2.6,2.1-5.2,2.7-8c-0.2-1.8-12.9,0.5-7.8-6.5
		c8.5-1.5,9.9,4.3,9.2-7.6c0-3.6-8.5,2.3-11-0.2c-0.9-1.5-1.1-3.9,0.8-4.7c1.6-1.4,10.8-1,8.4-3.7c-0.7-1.4-2.4-8.7-4.4-7
		c-3.2,1.1-9.2,8-11,2C165.1,106,165.8,105.4,166.1,104.6z"/>
	<path class="st0" d="M144.8,188.7c0.8,6.4,1.2,13.1,0.1,19.4c-2.7,4.3-9.4,1.3-13.6,1.5c-20.2-0.1-14.5-8.1-12.9-23
		c0.8-2.1,2.2-5.5,4.9-3.3c2.1,5.4-0.7,12.5-1,18.3c0.6,3.6,13.1,1.7,16.5,2.8c1.3,0.8,0.9-12.2-0.3-11.9c-2.1,0.5-6.7-1.4-7.2,1.6
		c-0.1,2.3-0.1,2.4,2.1,3c1,0.3,1.5,0.9,1.7,1.8c0.7,5.6-9.9,4.1-10.1-0.6c-0.3-4.8,0.1-12,6.4-11.8
		C135.5,187.2,142.3,185.1,144.8,188.7z"/>
	<path class="st0" d="M217,105.8c1.1,5,6.5,16.1-0.4,18.4c-0.2,0-0.4,0-0.5,0.1c-6,0.9-12,1.8-18.1,1.9c-1.8,0-2.9-1.2-2.8-2.9
		c0.4-4.4,10.5-1.8,13.8-3.6c1.2-0.3,5.2,0.1,5.3-1.3c-0.7-5.9-2.6-11.5-5.1-16.8c-1.7-2.1-5.5,1.7-7.9,1.7
		c-3.2,0.9-0.8,4.5-1.1,6.8c0.1,1.8,2.2,0.8,3.4,0.8c1.2-0.1,0-1.8,0.1-2.6c-0.4-1.7,0.4-3.1,2-3.5c4.5-1.1,4.3,6.5,4.5,9.5
		c-1.2,3.3-9.1,2.3-12.1,2.3c-3.9-1.1-3.1-6.1-4-9.2c0-3.3-1.3-7,2.9-8.4c4.2-1.4,8-3.9,12.4-4.6C214.6,94.5,214.8,102,217,105.8z"
		/>
	<path class="st0" d="M179.8,170c-0.8-4.7,3.3-7.9,6.5-10.6c5.2-3.3,10.7,3.4,15.4,5.5c9.8,5.5,0.8,14.8-3.6,20.7
		c-2.6,2.5-6.7,8.6-10.6,5.2c-2.2-3.7-18.7-14.3-12.7-17.4c0.9-0.1,1.8-0.1,2.7,0.4c3.8,3.8,7.8,7.4,11.7,11.2
		c1.3,1.3,2.6-1.3,3.6-2c1.8-2.5,10.7-10.7,6.7-13c-3-2-6.9-5.1-10.3-5.4c-2.6,3-5,4.3-0.9,7.5c0.9,0.5,1.6-1.6,2.6-1.8
		c3.8-2.1,5.1,2.6,2.7,5.1C189.1,184.5,182.6,175.2,179.8,170z"/>
	<path class="st0" d="M72.3,181c-11.5-22.3-18.2-18.6,5-30.3c1.4-0.3,2.8-0.8,4.2-0.2c0.5,0.9,1.4,1.6,1.1,2.8c-1,1.3-2.5,2-3.8,3.1
		c-3.4,1.5-6.7,3.5-10.1,5.2c-0.3,0.2-0.8,0.3-0.5,0.9c2.2,4.8,4.9,9.4,7.8,13.8c2.1,1.3,6-4.4,8.1-5.6c1.3-2.2-2.8-4.4-3.9-6.1
		c-0.7-0.3-2.9,0.6-2.5,1.5c0.6,2.4,3.4,4.7,0.9,7c-3.8,2.5-6.1-4.6-7.1-7.3c-2.1-4.6,3.9-5.3,6.8-7c2.4-1.4,4.2,0.6,6.2,1.8
		c6.8,7.4,8.4,10.4,0,17.3c-2.1,1.4-4.1,3-6,4.6l-0.1,0c0,0,0,0,0,0c-2,0.6-3.2,1.1-5-0.4c0,0,0,0,0,0
		C73.1,181.7,72.8,181.3,72.3,181L72.3,181z"/>
	<path class="st0" d="M123.3,49.2c1.8,4.6,3.7,9.2,4.8,14.1c0.5,2.3-0.5,3.6-2.8,3.8c-2.7-0.8-2.6-4.4-3.8-6.5c0,0,0,0,0,0
		c-1.4-4.7-1.4-10.6-7.8-6.8c-9.2,4.4-11.7,0.7-7.6,12.2c1.2,0.9,4.3-1.4,6-1.5c2.2-0.7,2.1-0.7,1.8-2.8c-0.1-0.8-0.5-0.8-1-0.5
		c-9.8,3.3-7.6-6.8,3.2-6.2c4.1,0.8,2.7,6.3,4.1,9.2c-0.4,2.3-0.9,3.5-3.1,4.6l-0.1,0c-0.6,0.2-1.8,0.3-1.7,1.1l0,0
		c0-0.5-0.9-0.4-1.1,0.1c-3.7,0.6-9.5,4.8-12.2,0.3c-2-3.9-2.9-8.2-3.7-12.4c-0.9-3.2,2-4.7,4.4-5.8c2.5-0.8,5.2-1.5,7.7-2.7
		c0,0,0,0,0,0C114.5,48.3,120.7,43.2,123.3,49.2z"/>
	<path class="st0" d="M90.2,67.5c2.6,2.2,5.3,4.5,7.5,7.1c1,1.2,0.9,2.4-0.5,3.2c-1.9,0.4-3-1.8-4.5-2.8c0,0,0,0,0,0
		c-2.3-2.4-4.4-6-7-1.7c-4.1,5.4-6.8,4.5-0.7,9.9c1.2,0.1,2.1-2.2,3.2-2.9c1.1-1.1,1.1-1.1,0.2-2.3c-0.3-0.4-0.6-0.3-0.8,0
		c-5.4,5.4-6.4-2.1,0-4.8c2.8-0.8,3.7,3,5.5,4.3c0.5,1.4,0.6,2.6-0.4,3.8l-0.1,0c-0.3,0.3-1,0.8-0.7,1.2l0,0
		c-0.2-0.3-0.7,0.1-0.7,0.4c-2.1,1.6-4.3,6.1-7.4,4.1c-3.1-2.8-9.7-7.2-5.5-11.5c1.3-1.3,2.7-2.7,3.8-4.2c0,0,0,0,0,0
		C84.5,69.8,86.7,64.6,90.2,67.5z"/>
	<path class="st0" d="M62,128c3.3-0.8,6.7-1.6,10.2-1.9c1.6-0.1,2.4,0.7,2.3,2.3c-0.8,1.8-3.3,1.4-4.9,2c0,0,0,0,0,0
		c-3.3,0.4-7.5,0-5.5,4.7c1.9,6.5-0.4,8.2,7.6,6.4c0.7-0.9-0.5-3-0.5-4.3c-0.3-1.6-0.3-1.5-1.8-1.5c-0.6,0-0.6,0.3-0.5,0.7
		c1.2,7.5-5.5,3.9-3.9-2.8c1-2.7,4.6-1.2,6.7-1.9c1.4,0.4,2.4,1.1,2.9,2.6l0,0.1c0.1,0.4,0,1.3,0.6,1.3l0,0
		c-0.4-0.1-0.3,0.6-0.1,0.8c0.1,2.6,2.4,7-1,8.4c-4.1,0.8-11.5,3.6-12.5-2.3c-0.3-1.8-0.5-3.8-1.1-5.6c0,0,0,0,0,0
		C60.5,133.9,57.6,129.2,62,128z"/>
	<path class="st0" d="M91,187.8c1.7-2.1,3.3-9.5,6.8-7.2c0.6,1.4-0.9,2.7-1.4,3.9c0,0,0,0,0,0c-1.5,2.1-3.8,4.6-0.1,5.7
		c4.7,2.3,4.8,4.5,7.8-1.2c-0.1-0.9-2-1.2-2.8-2c-1.1-0.7-1.1-0.6-1.8,0.3c-0.3,0.3-0.2,0.5,0.2,0.6c5.2,3.4-0.7,5.2-3.7,0.8
		c-1.1-2,1.7-3.4,2.4-5c1-0.6,1.9-0.9,3-0.3l0,0c0.3,0.2,0.8,0.7,1.1,0.3l0,0c-0.2,0.2,0.2,0.5,0.4,0.4c1.6,1.4,5.4,2.3,4.5,5
		c-1.6,2.9-3.9,8.7-7.9,6.2c-1.2-0.8-2.5-1.7-3.9-2.3c0,0,0,0,0,0C93.8,191.8,89.4,191,91,187.8z"/>
	<path class="st0" d="M158.2,197.2c-1.1-2.4-7-7.2-3.4-9.2c1.6,0.1,2,2,2.9,3c0,0,0,0,0,0c1.2,2.3,2.4,5.4,5.1,2.6
		c4.1-3.2,6.1-2.3,2.4-7.5c-0.9-0.3-2,1.3-3,1.6c-1.1,0.7-1,0.7-0.6,1.7c0.2,0.4,0.4,0.4,0.6,0.1c5.4-3.2,4.3,3-0.9,3.7
		c-2.3,0.1-2.3-3-3.4-4.3c-0.1-1.2,0.1-2.1,1-2.9l0,0c0.3-0.2,0.9-0.4,0.8-0.8l0,0c0.1,0.3,0.6,0.1,0.6-0.2c1.9-0.8,4.4-3.9,6.5-1.8
		c1.8,2.7,6.1,7.3,2.1,9.8c-1.3,0.8-2.6,1.5-3.7,2.5c0,0,0,0,0,0C163,196.5,160.4,200,158.2,197.2z"/>
	<path class="st0" d="M206.7,152.4c-2.7-0.4-9.8,2.2-9.7-1.9c0.9-1.3,2.7-0.7,4.1-0.9c0,0,0,0,0,0c2.6,0.2,5.9,0.8,4.9-3
		c-0.5-5.1,1.1-6.5-5.1-6c-0.7,0.6,0,2.4-0.2,3.4c0,1.3,0,1.2,1.2,1.4c0.4,0.1,0.5-0.1,0.4-0.5c0.1-6.2,4.8-2.1,2.7,2.7
		c-1.1,2-3.8,0.4-5.5,0.6c-1-0.5-1.7-1.1-1.9-2.4l0,0c0-0.3,0.2-1-0.3-1.1l0,0c0.3,0.1,0.3-0.4,0.2-0.6c0.3-2.1-0.9-5.8,1.9-6.4
		c3.3-0.1,9.5-1.3,9.4,3.4c0,1.5-0.1,3,0.1,4.5c0,0,0,0,0,0C208.6,148,210.3,152.1,206.7,152.4z"/>
	<path class="st0" d="M202.7,86.4c-2.4,1.3-6.6,7.6-8.9,4.2c-0.1-1.6,1.8-2.1,2.7-3.2c0,0,0,0,0,0c2.2-1.4,5.2-2.8,2.2-5.3
		c-3.6-3.8-2.8-5.9-7.7-1.8c-0.2,0.9,1.4,1.9,1.8,2.8c0.7,1,0.8,1,1.8,0.4c0.4-0.2,0.3-0.4,0.1-0.6c-3.6-5.1,2.6-4.5,3.8,0.6
		c0.3,2.3-2.8,2.5-4,3.8c-1.1,0.2-2.1,0.1-2.9-0.8l0,0c-0.2-0.3-0.5-0.9-0.9-0.7l0,0c0.3-0.1,0-0.6-0.2-0.6c-1-1.9-4.2-4.1-2.3-6.3
		c2.6-2.1,6.8-6.7,9.6-2.8c0.9,1.2,1.7,2.5,2.8,3.5c0,0,0,0,0,0C201.6,81.7,205.4,84.1,202.7,86.4z"/>
	<path class="st0" d="M150.6,53.1c-0.5,2.6,1.5,9.9-2.6,9.5c-1.2-1-0.5-2.8-0.6-4.1c0,0,0,0,0,0c0.4-2.5,1.2-5.8-2.6-5.1
		c-5.1,0.1-6.4-1.6-6.4,4.6c0.6,0.7,2.4,0.1,3.4,0.4c1.3,0.1,1.2,0.1,1.5-1.1c0.1-0.4-0.1-0.5-0.4-0.5c-6.2-0.6-1.8-4.9,2.9-2.5
		c1.9,1.2,0.1,3.8,0.2,5.5c-0.6,1-1.3,1.6-2.5,1.7l0,0c-0.3,0-1-0.2-1.1,0.2l0,0c0.1-0.3-0.4-0.4-0.6-0.2c-2.1-0.5-5.9,0.5-6.3-2.4
		c0.1-3.3-0.6-9.5,4.1-9.2c1.5,0.1,3,0.3,4.5,0.2c0,0,0,0,0,0C146.3,50.9,150.6,49.6,150.6,53.1z"/>
	<path class="st0" d="M76.9,115c-1.3,6-8.5,4.3-12.9,3.2c-2-0.9-5.4-0.4-6.3-2.7c-1.4-8.2,1.2-17.5,5.8-24.4c3.1-4,8.1,0,11.8,0.9
		c0.5,0.5,1.2,0.6,1.9,0.8c2.4,1.9,10.5,3.1,6.9,7.5c-3.1,2-6.2-2.1-9.4-2.5c-3.1-1.4-8.1-5-8.9,0.4c-0.8,2.3-5.4,14.3-1.7,14.4
		c2.2,0.3,5.7,1.9,7.4,0.5c0-1.9,2.8-5.7,0.1-6.3c-1.3-0.2-0.5,1.7-1.2,2.4c-7.6,6.3-6.9-12.9,3.4-7.8c7.7,2.7,5.2,5,3.9,11.6
		C77.2,113.5,77.2,114.3,76.9,115z"/>
	<path class="st0" d="M181.2,62.1c-0.9-0.5-1.7-1-2.7-1.2c-1.7-0.8-12.6-5.1-13-2.6c-0.8,4-5,9.3,1.4,10.1c2.3,0.8,2.3,0.8,3.2-1.4
		c0.6-1.4,0.4-1.9-1.2-2.2c-2.9-0.4-3.4-5.4-0.1-5.3c6.1,0.6,9.4,4.4,6,10.2c-0.9,1.7-1.2,3.8-2.9,5.1c-4.1,0-15.7-2.6-14.1-8.1
		c1.8-8.6,1.5-17.6,13-14.2c5,1.6,10.2,2.9,14.8,5.8c0.4,0.7,1.1,1.2,1.7,1.8c0,0.1,0,0.1,0.1,0.1c0.2,0.4,0.3,0.9,0.7,1.2
		c0.2,1.6-0.1,3.2-0.7,4.6c-2.5,4.2-5.4,8.2-8.1,12.2c0,0,0,0,0,0c-9,1.9,0.8-9.5,1.9-12.7c0.4-0.3,0.4-0.8,0.8-1.2
		C183.2,63.6,182.4,62.3,181.2,62.1z"/>
	<path class="st0" d="M128.4,109.8c23.5-11.4,39.9,24.5,16.1,35.1C122.7,152.7,108.2,121.3,128.4,109.8z"/>
</g>
</svg>
